Coordinates
version=1
nRows=23
nColumns=23
inDegrees=yes

Units are S.I. units (second, meters, Newtons, ...)
If the header above contains a line with 'inDegrees', this indicates whether rotational values are in degrees (yes) or radians (no).

endheader
time	pelvis_tilt	pelvis_list	pelvis_rotation	pelvis_tx	pelvis_ty	pelvis_tz	hip_flexion_r	hip_adduction_r	hip_rotation_r	knee_angle_r	knee_angle_r_beta	ankle_angle_r	subtalar_angle_r	mtp_angle_r	hip_flexion_l	hip_adduction_l	hip_rotation_l	knee_angle_l	knee_angle_l_beta	ankle_angle_l	subtalar_angle_l	mtp_angle_l
     22.50000000	    -14.12821915	      4.68803509	      8.01090324	      2.36903188	      0.96000298	      0.96455809	    -16.84630013	     -0.10859646	     -6.35699512	     39.07363534	      0.68196359	    -19.27116187	     -6.00508482	      0.00000000	     41.98968664	      8.60743101	    -11.90633992	     18.53886625	      0.32356426	     -3.34456197	      6.47772708	      0.00000000
     22.50666667	    -13.61153589	      4.81906940	      8.53136674	      2.36901009	      0.95848163	      0.96376104	    -16.27180927	     -0.43316509	     -7.72755530	     43.58482702	      0.76069874	    -19.18138675	     -6.64922163	      0.00000000	     40.90866496	      9.33049114	    -12.57364703	     16.89708204	      0.29490972	     -4.21522313	      6.75100297	      0.00000000
     22.51333333	    -13.04901865	      5.05119070	      9.16422540	      2.36887615	      0.95656760	      0.96293124	    -15.65405800	     -0.93461108	     -9.26017174	     48.23243009	      0.84181471	    -19.07319340	     -7.20153524	      0.00000000	     39.81100382	     10.19039512	    -12.88682777	     15.82086205	      0.27612613	     -5.03893218	      6.33363620	      0.00000000
     22.52000000	    -12.52663763	      5.28333444	      9.82931734	      2.36855335	      0.95425536	      0.96224325	    -14.88552844	     -1.38149286	    -10.49631476	     52.90214665	      0.92331664	    -19.19457031	     -8.30756343	      0.00000000	     38.91122508	     10.92023382	    -13.33514294	     15.57101493	      0.27176548	     -5.55213060	      6.07105189	      0.00000000
     22.52666667	    -11.96477488	      5.54240207	     10.53306094	      2.36805108	      0.95160620	      0.96161283	    -14.05963349	     -1.89639777	    -11.68277137	     57.61669021	      1.00560095	    -19.16224129	     -9.26283094	      0.00000000	     38.03686538	     11.58684471	    -13.65599329	     15.94928941	      0.27836761	     -5.99453089	      5.53013119	      0.00000000
     22.53333333	    -11.48525153	      5.83613661	     11.19840558	      2.36737126	      0.94851234	      0.96120677	    -13.01984703	     -2.47192958	    -12.62710540	     62.38984372	      1.08890819	    -18.95968944	    -10.05372261	      0.00000000	     37.30791808	     12.17480753	    -13.78577687	     16.91145892	      0.29516064	     -6.27249865	      4.67928269	      0.00000000
     22.54000000	    -11.13137869	      6.03914668	     11.80029584	      2.36642158	      0.94493281	      0.96096240	    -11.67207033	     -2.98559853	    -13.27109553	     67.18755006	      1.17264396	    -18.55310973	    -10.65018088	      0.00000000	     36.81683127	     12.58795936	    -13.58402100	     18.47840697	      0.32250904	     -6.21389022	      3.45792134	      0.00000000
     22.54666667	    -10.85250691	      6.07420156	     12.42014357	      2.36520565	      0.94094011	      0.96089698	    -10.08239051	     -3.29143704	    -13.69366373	     71.91948087	      1.25523174	    -17.89349419	    -11.16919615	      0.00000000	     36.50474547	     12.83403964	    -12.84143203	     20.61465766	      0.35979365	     -5.81991073	      1.88798658	      0.00000000
     22.55333333	    -10.48233411	      6.16198064	     12.93735309	      2.36387276	      0.93685068	      0.96096972	     -8.49462517	     -3.69584351	    -13.95360756	     76.55170161	      1.33607924	    -17.11764520	    -11.61467122	      0.00000000	     36.08864117	     13.06469390	    -11.78253952	     23.13088092	      0.40371003	     -4.86455156	      0.14409998	      0.00000000
     22.56000000	    -10.31589050	      6.04975567	     13.41627372	      2.36218824	      0.93223628	      0.96109121	     -6.47652233	     -3.93244646	    -13.98333293	     81.13939061	      1.41614952	    -16.11176013	    -11.80848552	      0.00000000	     35.96919508	     13.21795532	    -10.12056423	     26.05695865	      0.45477972	     -3.47212011	     -2.03017529	      0.00000000
     22.56666667	    -10.10304951	      5.94156824	     13.74774441	      2.36037715	      0.92752886	      0.96127943	     -4.38400561	     -4.27081209	    -13.85741543	     85.60069632	      1.49401399	    -14.99443749	    -11.84331771	      0.00000000	     35.75180862	     13.37928108	     -8.25563616	     29.18784131	      0.50942393	     -1.47781451	     -4.32014717	      0.00000000
     22.57333333	     -9.91860236	      5.79645842	     13.97876697	      2.35834722	      0.92269817	      0.96145962	     -2.11718835	     -4.64261852	    -13.56395670	     89.92835405	      1.56954587	    -13.78291671	    -11.69178263	      0.00000000	     35.51693432	     13.53899370	     -6.32737806	     32.46432211	      0.56660931	      1.06574570	     -6.52097320	      0.00000000
     22.58000000	     -9.78297015	      5.59712386	     14.08241773	      2.35622056	      0.91788124	      0.96160384	      0.35474910	     -5.04846062	    -13.10731628	     94.06572419	      1.64175660	    -12.53758783	    -11.39718852	      0.00000000	     35.21843915	     13.64932778	     -4.51320535	     35.71343271	      0.62331699	      3.99040720	     -8.41033566	      0.00000000
     22.58666667	     -9.67819102	      5.38075994	     14.08793851	      2.35394835	      0.91318754	      0.96176518	      3.00251023	     -5.49402067	    -12.49744775	     97.98400169	      1.71014344	    -11.32124902	    -10.95559726	      0.00000000	     34.80607898	     13.69826213	     -2.92196153	     38.82946714	      0.67770205	      7.26267807	     -9.80325703	      0.00000000
     22.59333333	     -9.57668256	      5.13322697	     13.97008025	      2.35161571	      0.90877540	      0.96205549	      5.80283008	     -5.90814294	    -11.71190210	    101.62073055	      1.77361634	    -10.17802815	    -10.51404454	      0.00000000	     34.25704766	     13.51558292	     -1.87288094	     41.79809340	      0.72951435	     11.17110896	     -9.87125109	      0.00000000
     22.60000000	     -9.56225886	      4.89649814	     13.83417743	      2.34919751	      0.90473884	      0.96223714	      8.81143570	     -6.39038857	    -10.84990366	    104.95414927	      1.83179547	     -9.04607864	     -9.86458523	      0.00000000	     33.48165221	     13.41426080	     -0.67336850	     44.20848705	      0.77158366	     14.46732142	    -10.48441014	      0.00000000
     22.60666667	     -9.48129914	      4.71381526	     13.63658620	      2.34681448	      0.90132846	      0.96250812	     11.83081489	     -6.89272163	     -9.88257935	    107.89958350	      1.88320299	     -8.11150336	     -9.20704028	      0.00000000	     32.35082433	     13.24400740	      0.33549669	     46.14562622	      0.80539311	     17.64687648	    -10.89185099	      0.00000000
     22.61333333	     -9.54880624	      4.37915056	     13.35972323	      2.34454649	      0.89827126	      0.96300536	     15.16449547	     -7.12739422	     -8.78353524	    110.45138079	      1.92774026	     -7.11149034	     -8.63636257	      0.00000000	     31.24572643	     12.60516369	      0.66427316	     47.84544312	      0.83506051	     21.35319074	     -9.28289648	      0.00000000
     22.62000000	     -9.63486544	      4.11713418	     13.09008564	      2.34238815	      0.89588405	      0.96339935	     18.53987293	     -7.42542383	     -7.66704256	    112.57191142	      1.96475050	     -6.22066391	     -7.95503239	      0.00000000	     29.78678751	     12.10302424	      1.23395982	     48.83516946	      0.85233450	     23.92757662	     -8.84449055	      0.00000000
     22.62666667	     -9.58644696	      3.94224406	     12.76361873	      2.34059348	      0.89435123	      0.96382386	     21.73464367	     -7.68650264	     -6.49586272	    114.20104181	      1.99318419	     -5.40186151	     -7.43273026	      0.00000000	     27.84203963	     11.58681087	      1.75867103	     49.19678070	      0.85864580	     25.70449293	     -9.10467968	      0.00000000
     22.63333333	     -9.90083060	      3.61032967	     12.46699615	      2.33884489	      0.89304426	      0.96409784	     25.39578222	     -7.81741789	     -5.39784813	    115.42365492	      2.01452281	     -4.57545204	     -6.61882379	      0.00000000	     26.13484894	     10.89363270	      2.09382964	     49.18239610	      0.85839475	     27.03897440	     -8.51272208	      0.00000000
     22.64000000	     -9.79180803	      3.17121190	     12.29860250	      2.33781666	      0.89310646	      0.96416605	     28.35748279	     -7.70604339	     -4.66268681	    115.93990545	      2.02353308	     -4.11048248	     -6.53304893	      0.00000000	     23.66515269	     10.04510027	      2.68832999	     48.59144385	      0.84808068	     27.62407181	     -8.36004172	      0.00000000
     22.64666667	    -10.16400603	      2.97066687	     11.70550967	      2.33695646	      0.89285901	      0.96456398	     31.94693219	     -7.67154403	     -3.38307738	    116.29592314	      2.02974677	     -3.21649210	     -5.84416716	      0.00000000	     21.60188016	      9.16038771	      2.23474015	     47.74599019	      0.83332473	     28.21330880	     -7.61262847	      0.00000000
